<svg id="Layer_1" data-name="Layer 1" xmlns="http://www.w3.org/2000/svg" viewBox="0 0 35.65 54.27"><defs><style>.cls-1,.cls-2{fill:#fff;}.cls-2{font-size:13.96px;font-family:MyanmarText-Bold, Myanmar Text;font-weight:700;}</style></defs><title>logo</title><path class="cls-1" d="M16.58,18c0,4,0,8.05,0,12.08a7.13,7.13,0,0,0,.25,1.7,3.43,3.43,0,0,0,3.05,2.7,3.2,3.2,0,0,1,1,.24c.21.11.34.41.5.62-.21.15-.4.42-.62.43-.67.06-1.35,0-2,0H11.38a11.37,11.37,0,0,1-1.43,0,.94.94,0,0,1-.62-.48c-.05-.12.24-.4.4-.6a.58.58,0,0,1,.28-.1c1.92-.52,2.74-1.43,2.85-3.92.08-1.85,0-3.7,0-5.56,0-5.67,0-11.35,0-17a11.4,11.4,0,0,0-.25-2.25A2.15,2.15,0,0,0,10.39,4L9.85,4c-.45,0-.8-.19-.75-.71s.36-.67.83-.64.92.07,1.37.07c2.49,0,5,0,7.47-.07a18.58,18.58,0,0,1,8.55,1.5A7.85,7.85,0,0,1,32,10.93a10.25,10.25,0,0,1-5.87,9.71c-.75.33-.81.5-.42,1.22a43,43,0,0,0,7.93,10.62A12.53,12.53,0,0,0,39.76,36c.18,0,.33.28.49.42-.16.14-.31.37-.49.4a11.78,11.78,0,0,1-6.83-.8,15,15,0,0,1-6.17-5.56c-1.32-2-2.51-4-3.73-6a5.68,5.68,0,0,0-3.29-2.85c-.14,0-.31-.09-.37-.19a1.52,1.52,0,0,1-.25-.72c0-.08.37-.22.57-.24a20.29,20.29,0,0,0,3.32-.2,6.73,6.73,0,0,0,5.47-5.63A8.18,8.18,0,0,0,26,6.66a9,9,0,0,0-5.4-2.28,17.91,17.91,0,0,0-2.74-.06c-1,.06-1.28.45-1.28,1.43V18Z" transform="translate(-8.75 -2.63)"/><text class="cls-2" transform="translate(0 44.04)">.com </text></svg>