<?xml version="1.0" encoding="utf-8"?>
<!-- Generator: Adobe Illustrator 22.1.0, SVG Export Plug-In . SVG Version: 6.00 Build 0)  -->
<svg version="1.1" id="Layer_1" xmlns="http://www.w3.org/2000/svg" xmlns:xlink="http://www.w3.org/1999/xlink" x="0px" y="0px"
	 viewBox="0 0 50 50" style="enable-background:new 0 0 50 50;" xml:space="preserve">
<style type="text/css">
	.st0{fill:none;stroke:#FFFFFF;stroke-width:4.2707;stroke-miterlimit:10;}
	.st1{fill:none;stroke:#FFFFFF;stroke-width:3.0568;stroke-miterlimit:10;}
</style>
<image style="overflow:visible;" width="545" height="231" xlink:href="632F36C1.jpg"  transform="matrix(1 0 0 1 -562.1667 107.8333)">
</image>
<g>
	<path class="st0" d="M46.1,26.7C45.1,38.3,35,47,23.3,46.1c-4.1-0.3-7.8-1.8-10.8-4c-5.7-4.2-9.1-11.1-8.5-18.7
		C4.9,11.7,15,3,26.7,3.9S47,15,46.1,26.7z"/>
	<path class="st1" d="M13.1,41.3c0,0,1.2-7.6,5.5-8.4c4.3-0.7,3.2-4,3.2-4s-4.6-2.1-4.4-8.6s2.9-9,6.8-9.3c4-0.3,8.6,2.2,8.6,8.6
		S29,28.9,29,28.9s-1.7,2.4,1.7,3.4c3.5,0.9,6.9,5.4,6.8,9.7"/>
</g>
</svg>
